<?xml version="1.0" encoding="UTF-8"?>
<svg xmlns="http://www.w3.org/2000/svg" xmlns:xlink="http://www.w3.org/1999/xlink" width="564.221619pt" height="165.713394pt" viewBox="0 0 564.221619 165.713394" version="1.1">
<g id="surface1">
<path style=" stroke:none;fill-rule:nonzero;fill:rgb(0%,0%,0%);fill-opacity:1;" d="M 270.351562 164.375 C 268.6875 163.019531 268.628906 162.808594 269.804688 162.351562 C 272.039062 161.480469 271.25 158.777344 267.667969 155.0625 C 265.78125 153.101562 264.496094 151.5 264.808594 151.5 C 265.121094 151.5 264.597656 150.667969 263.640625 149.648438 C 262.683594 148.628906 261.632812 147.960938 261.308594 148.164062 C 260.980469 148.363281 261.535156 149.351562 262.542969 150.355469 C 264.664062 152.480469 264.800781 153.742188 263.222656 156.789062 C 261.652344 159.828125 256.722656 160.136719 254.53125 157.328125 C 253.125 155.527344 253.410156 153.773438 255.46875 151.566406 C 256.453125 150.507812 256.605469 150 255.9375 150 C 255.394531 150 254.375 150.675781 253.667969 151.5 C 252.960938 152.324219 252.5625 153 252.78125 153 C 253.464844 153 247.566406 159.109375 246.152344 159.863281 C 244.519531 160.738281 242.15625 160.085938 241.585938 158.601562 C 241.34375 157.960938 242.324219 156.292969 243.957031 154.578125 C 247.859375 150.46875 253.253906 144.125 254.769531 141.855469 C 256.863281 138.722656 258.054688 125.355469 256.433594 123.214844 C 255.875 122.476562 253.992188 118.90625 252.25 115.277344 L 249.085938 108.679688 L 246.039062 108.902344 C 243.222656 109.109375 242.976562 108.972656 242.757812 107.101562 C 242.589844 105.644531 243.238281 104.300781 245.070312 102.300781 C 248.378906 98.691406 251.035156 99.054688 252.414062 103.3125 C 252.914062 104.859375 253.902344 106.96875 254.605469 108 C 255.308594 109.03125 256.671875 111.476562 257.632812 113.4375 C 258.597656 115.398438 259.78125 117 260.269531 117 C 260.757812 117 262.4375 114.890625 264.007812 112.3125 C 268.808594 104.417969 271.917969 100.5 273.378906 100.5 C 275.304688 100.5 277.867188 104.015625 277.867188 106.65625 C 277.867188 108.695312 277.683594 108.84375 275.433594 108.617188 C 273.226562 108.398438 272.828125 108.691406 271.121094 111.800781 C 270.089844 113.6875 268 116.90625 266.480469 118.957031 C 263.972656 122.34375 263.613281 123.464844 262.539062 131.15625 C 261.890625 135.816406 261.570312 140.019531 261.828125 140.5 C 262.089844 140.980469 263.601562 142.726562 265.1875 144.375 C 277 156.648438 277.644531 157.550781 277.160156 161.121094 C 277.0625 161.855469 277.960938 162.0625 280.570312 161.902344 C 283.230469 161.738281 284.3125 161.996094 284.902344 162.929688 C 286.128906 164.875 284.964844 165.355469 278.351562 165.632812 C 273.066406 165.855469 271.949219 165.679688 270.351562 164.375 Z M 84.34375 161.699219 C 81.816406 160.863281 81.75 160.738281 81.929688 157.246094 C 82.03125 155.269531 82.511719 152.917969 83 152.015625 C 83.976562 150.199219 85.199219 145.15625 85.199219 142.964844 C 85.199219 142.1875 84.304688 139.792969 83.21875 137.640625 L 81.238281 133.730469 L 75.867188 134.027344 C 67.15625 134.507812 67.117188 134.527344 67.117188 138.332031 C 67.117188 140.148438 67.523438 143.386719 68.015625 145.53125 C 68.832031 149.054688 68.785156 149.523438 67.542969 150.433594 C 65.816406 151.695312 60.28125 152.5625 58.191406 151.898438 C 56.097656 151.234375 56.191406 148.953125 58.375 147.523438 C 60.054688 146.417969 60.121094 146.039062 59.921875 138.4375 C 59.660156 128.65625 59.523438 128.777344 71.574219 128.25 L 80.152344 127.875 L 80.8125 125.320312 C 81.914062 121.058594 80.871094 119.207031 73.351562 112.070312 C 67.347656 106.367188 66.265625 105 66.703125 103.632812 C 67.5625 100.921875 69.882812 101.746094 74.800781 106.5 C 79.542969 111.082031 81.640625 112.339844 79.535156 109.332031 C 77.085938 105.835938 78.703125 102.847656 83.714844 101.617188 C 85.34375 101.21875 85.972656 101.539062 87.355469 103.480469 C 88.402344 104.953125 88.898438 106.515625 88.675781 107.664062 C 88.484375 108.675781 88.554688 109.5 88.839844 109.5 C 89.121094 109.5 90.964844 107.953125 92.941406 106.058594 C 96.15625 102.980469 96.480469 102.371094 96.042969 100.246094 C 94.542969 92.914062 94.609375 91.8125 96.644531 90.210938 C 98.1875 88.996094 99.328125 88.757812 102.167969 89.050781 C 107.433594 89.59375 109.191406 90.925781 108.617188 93.941406 C 107.992188 97.242188 107.261719 98.007812 104.183594 98.585938 C 101.4375 99.101562 100.117188 101.039062 100.117188 104.566406 C 100.117188 105.695312 98.648438 107.632812 95.804688 110.238281 C 85.917969 119.308594 86.855469 117.90625 86.4375 124.320312 C 86.070312 129.9375 86.15625 130.3125 89.042969 135.992188 C 91.773438 141.363281 91.984375 142.199219 91.53125 145.820312 C 91.261719 147.996094 90.574219 151.316406 90.007812 153.199219 C 89.132812 156.109375 89.136719 156.820312 90.023438 157.996094 C 91.589844 160.0625 91.34375 161.023438 89.03125 161.832031 C 87.617188 162.324219 86.113281 162.28125 84.34375 161.699219 Z M 21.554688 161.503906 C 20.273438 160.988281 20.378906 158.636719 21.804688 155.878906 C 22.457031 154.617188 25.511719 150.890625 28.585938 147.601562 C 33.171875 142.699219 34.082031 141.328125 33.636719 140 C 33.335938 139.105469 33.070312 135.222656 33.042969 131.371094 C 33 125.328125 32.789062 124.191406 31.492188 123.09375 C 29.4375 121.351562 26.945312 117.730469 26.261719 115.484375 C 25.246094 112.175781 23.621094 110.933594 20.953125 111.433594 C 17.683594 112.046875 17.089844 110.742188 19.222656 107.625 C 22.871094 102.300781 26.542969 102.769531 29.527344 108.941406 C 30.398438 110.738281 31.789062 112.9375 32.613281 113.824219 C 33.441406 114.710938 34.125 115.703125 34.136719 116.03125 C 34.144531 116.359375 34.765625 117.425781 35.519531 118.402344 C 37.398438 120.847656 39.339844 119.699219 41.988281 114.585938 C 43.113281 112.40625 44.503906 110.09375 45.078125 109.441406 C 45.648438 108.789062 46.117188 107.925781 46.117188 107.519531 C 46.117188 107.113281 47.09375 105.84375 48.289062 104.703125 C 51.113281 101.992188 53.273438 102.355469 55.273438 105.867188 C 57.289062 109.410156 56.683594 111 53.316406 111 C 51.273438 111 50.609375 111.359375 50.207031 112.6875 C 49.925781 113.617188 49.109375 115.050781 48.394531 115.875 C 47.679688 116.699219 45.777344 119.542969 44.167969 122.195312 L 41.242188 127.011719 L 41.71875 142.613281 L 46.371094 147.242188 C 51.957031 152.804688 54.359375 156.910156 53.152344 158.824219 C 51.898438 160.804688 49.726562 160.382812 48 157.820312 C 45.097656 153.515625 41.660156 149.707031 41.144531 150.226562 C 40.859375 150.507812 41.1875 151.359375 41.871094 152.117188 C 43.601562 154.027344 43.453125 157.914062 41.578125 159.792969 C 39.242188 162.125 34.183594 161.582031 32.648438 158.832031 C 31.605469 156.960938 31.628906 156.5625 32.933594 154.140625 C 33.71875 152.683594 34.21875 151.351562 34.050781 151.183594 C 33.332031 150.464844 31.300781 152.90625 29.316406 156.875 C 27.003906 161.488281 24.789062 162.808594 21.554688 161.503906 Z M 131.21875 160.535156 C 130.378906 160.195312 129.257812 159.398438 128.734375 158.761719 C 127.628906 157.433594 128.707031 154.792969 131.910156 150.988281 C 134.386719 148.039062 137.695312 141.730469 137.1875 140.910156 C 136.964844 140.546875 134.015625 138.90625 130.636719 137.261719 L 124.492188 134.273438 L 118.957031 135.753906 C 110.246094 138.078125 110.109375 138.460938 115.089844 146.660156 C 116.601562 149.15625 118.058594 151.761719 118.324219 152.453125 C 119.117188 154.523438 116.867188 156 112.90625 156 C 107.453125 156 105.90625 153.148438 110.425781 151.429688 L 112.335938 150.703125 L 110.8125 149.039062 C 109.328125 147.421875 106.003906 140.777344 105.035156 137.5 C 104.527344 135.78125 106.832031 133.5 109.078125 133.5 C 110.613281 133.5 120.539062 130.40625 121.605469 129.597656 C 122.082031 129.234375 122.835938 126.847656 123.285156 124.292969 L 124.105469 119.644531 L 119.050781 114.957031 C 116.269531 112.378906 113.773438 110.261719 113.503906 110.257812 C 112.660156 110.242188 109.828125 104.917969 110.277344 104.191406 C 111.351562 102.453125 114.726562 103.59375 117.691406 106.695312 C 119.371094 108.449219 121.3125 110.332031 122.011719 110.875 C 123.175781 111.78125 123.207031 111.667969 122.386719 109.492188 C 121.546875 107.269531 121.640625 106.992188 123.941406 104.9375 C 125.289062 103.734375 127.03125 102.75 127.8125 102.75 C 129.457031 102.75 133.117188 106.78125 133.117188 108.59375 C 133.117188 109.394531 134.527344 108.433594 137.136719 105.855469 C 140.863281 102.175781 141.242188 101.980469 142.386719 103.125 C 143.0625 103.800781 143.617188 104.699219 143.617188 105.121094 C 143.617188 106.316406 136.558594 113.9375 133.574219 115.964844 C 130.035156 118.371094 128.617188 121.292969 128.625 126.148438 L 128.632812 130.125 L 133.179688 132.9375 C 135.675781 134.484375 138.144531 135.75 138.664062 135.75 C 139.839844 135.75 142.671875 138.738281 142.929688 140.25 C 143.390625 142.992188 141.6875 147.371094 138.621094 151.324219 L 135.296875 155.601562 L 137.207031 156.238281 C 138.351562 156.621094 139.117188 157.441406 139.117188 158.285156 C 139.117188 160.796875 134.855469 162.011719 131.21875 160.535156 Z M 495.402344 159.054688 C 493.152344 157.324219 493.652344 155.859375 498.285156 150.628906 C 501.835938 146.613281 502.902344 143.125 501.167969 141.167969 C 500.539062 140.457031 499.398438 138.535156 498.632812 136.894531 C 496.691406 132.734375 494.628906 131.832031 488.167969 132.316406 C 479.238281 132.980469 479.261719 132.941406 482.429688 141.882812 C 484.402344 147.453125 484.433594 147.757812 483.160156 149.03125 C 481.273438 150.917969 472.648438 150.972656 472.277344 149.101562 C 472.105469 148.242188 473.003906 147.328125 475.035156 146.292969 L 478.042969 144.757812 L 476.84375 141.941406 C 476.183594 140.390625 475.230469 137.175781 474.722656 134.796875 C 473.816406 130.5625 473.839844 130.433594 475.683594 128.984375 C 477.136719 127.84375 478.800781 127.484375 482.90625 127.429688 C 485.84375 127.386719 489.929688 126.964844 491.992188 126.488281 L 495.742188 125.617188 L 495.90625 120.851562 C 496.097656 115.335938 496.386719 115.695312 482.730469 104.492188 C 480.503906 102.664062 480.945312 101.675781 484.363281 100.832031 C 486.269531 100.359375 486.9375 100.789062 490.925781 105.0625 C 493.371094 107.679688 495.367188 109.449219 495.367188 109 C 495.367188 108.550781 494.898438 107.792969 494.324219 107.316406 C 492.253906 105.597656 492.355469 103.398438 494.605469 101.148438 C 497.238281 98.515625 499.359375 98.425781 501.777344 100.839844 C 504.046875 103.109375 504.105469 104.761719 501.988281 107.011719 C 501.09375 107.964844 500.527344 108.910156 500.726562 109.109375 C 501.175781 109.558594 503.605469 107.746094 507.253906 104.246094 C 508.761719 102.800781 511.257812 100.953125 512.800781 100.140625 C 515.40625 98.769531 515.691406 98.753906 516.84375 99.902344 C 517.992188 101.054688 517.902344 101.308594 515.535156 103.5 C 514.136719 104.796875 511.660156 106.929688 510.03125 108.242188 C 508.402344 109.550781 505.609375 112.039062 503.828125 113.769531 L 500.585938 116.914062 L 500.789062 123.648438 C 500.976562 129.824219 501.1875 130.65625 503.351562 133.722656 C 504.648438 135.5625 505.949219 137.867188 506.242188 138.847656 C 506.535156 139.824219 507.246094 141.375 507.824219 142.289062 C 508.730469 143.730469 508.714844 144.355469 507.695312 146.90625 C 507.042969 148.527344 505.3125 150.945312 503.847656 152.28125 L 501.179688 154.707031 L 503.582031 155.714844 C 505.1875 156.390625 505.902344 157.152344 505.734375 158.015625 C 505.246094 160.546875 498.257812 161.246094 495.402344 159.054688 Z M 157.550781 158.050781 C 153.957031 156.003906 153.574219 155.042969 155.558594 153.058594 C 156.785156 151.832031 157.464844 151.667969 158.964844 152.238281 C 161.199219 153.089844 161.167969 153.128906 166.023438 141.75 C 168.71875 135.433594 169.433594 132.835938 169.625 128.625 C 169.761719 125.738281 169.707031 122.675781 169.511719 121.820312 C 169.316406 120.964844 166.433594 117.421875 163.105469 113.945312 C 159.777344 110.46875 156.855469 106.828125 156.609375 105.855469 C 156.136719 103.980469 157.261719 102.78125 159.507812 102.761719 C 160.890625 102.75 165.871094 107.621094 166.519531 109.621094 C 167.027344 111.171875 170.617188 113.640625 170.617188 112.4375 C 170.617188 111.972656 169.820312 110.960938 168.84375 110.195312 C 166.691406 108.503906 166.945312 105.945312 169.542969 103.144531 C 172.015625 100.472656 175.300781 100.59375 177.316406 103.429688 C 179.253906 106.148438 179.261719 107.296875 177.367188 109.703125 C 175.703125 111.820312 175.515625 112.5 176.589844 112.5 C 176.984375 112.5 178.378906 110.898438 179.691406 108.9375 C 182.953125 104.050781 186.664062 101.003906 188.597656 101.617188 C 192.121094 102.738281 189.257812 108.636719 181.53125 116.195312 C 178.058594 119.589844 177.359375 120.707031 177.324219 122.945312 C 177.300781 124.417969 177.140625 126.996094 176.964844 128.671875 C 176.660156 131.574219 177.957031 136.542969 181.652344 146.625 C 183.617188 151.988281 184.003906 152.441406 186.148438 151.902344 C 188.148438 151.402344 190.117188 152.542969 190.117188 154.207031 C 190.117188 155.496094 184.652344 159 182.640625 159 C 180.953125 159 177.707031 154.425781 176.96875 151 C 176.246094 147.65625 174.269531 143.371094 173.269531 142.988281 C 171.941406 142.480469 170.203125 145.886719 168.730469 151.875 C 168.019531 154.761719 166.921875 157.714844 166.289062 158.4375 C 164.714844 160.226562 161.09375 160.066406 157.550781 158.050781 Z M 203.605469 158.355469 C 198.351562 155.558594 197.734375 150.675781 202.570312 150.128906 C 203.765625 149.996094 205.03125 149.605469 205.386719 149.261719 C 205.738281 148.917969 207.804688 144.394531 209.972656 139.203125 C 213.503906 130.761719 213.859375 129.433594 213.324219 126.570312 C 212.984375 124.734375 213.027344 123.070312 213.425781 122.664062 C 214.78125 121.269531 214.078125 119.371094 211.304688 116.9375 C 206.804688 112.992188 200.570312 104.796875 200.792969 103.125 C 200.945312 101.988281 201.652344 101.570312 203.726562 101.398438 C 206.355469 101.179688 206.621094 101.394531 210.585938 106.890625 C 212.894531 110.09375 214.929688 112.253906 215.210938 111.804688 C 215.484375 111.363281 215.347656 111 214.914062 111 C 214.476562 111 214.117188 110.636719 214.117188 110.195312 C 214.117188 109.753906 213.613281 108.886719 212.992188 108.269531 C 211.324219 106.601562 211.625 104.121094 213.773438 101.804688 C 218.347656 96.875 225.667969 101.5625 222.636719 107.480469 C 221.960938 108.796875 221.035156 110.121094 220.574219 110.425781 C 219.984375 110.816406 220.003906 110.980469 220.644531 110.988281 C 221.140625 110.996094 222.15625 110.09375 222.894531 108.988281 C 225.335938 105.34375 230.070312 101.25 231.839844 101.25 C 232.789062 101.25 233.921875 101.914062 234.359375 102.730469 C 235.167969 104.242188 234.140625 105.761719 227.492188 112.875 C 221.957031 118.796875 221.496094 119.730469 221.085938 125.816406 C 220.71875 131.238281 220.875 132.074219 223.453125 138.375 C 224.96875 142.085938 226.546875 146.234375 226.957031 147.589844 C 227.644531 149.859375 227.921875 150.039062 230.472656 149.839844 C 233.121094 149.632812 233.253906 149.734375 233.484375 152.15625 C 233.820312 155.671875 229.832031 159.921875 226.5 159.597656 C 224.585938 159.410156 223.941406 158.75 222.246094 155.25 C 221.148438 152.980469 219.796875 149.101562 219.246094 146.625 C 218.695312 144.148438 217.933594 142.125 217.554688 142.125 C 216.574219 142.125 212.71875 149.832031 212.128906 152.964844 C 211.671875 155.410156 208.292969 159.75 206.851562 159.75 C 206.503906 159.75 205.042969 159.125 203.605469 158.355469 Z M 293.683594 158.703125 C 292.761719 157.59375 294.117188 155.765625 302.0625 147.375 C 306.285156 142.914062 307.109375 140.425781 307.113281 132.121094 L 307.117188 125.867188 L 301.800781 116.558594 C 297.308594 108.695312 296.203125 107.25 294.675781 107.25 C 293.46875 107.25 292.867188 106.824219 292.867188 105.960938 C 292.867188 104.367188 296.382812 101.25 298.179688 101.25 C 299.699219 101.25 304.117188 106.261719 304.117188 107.984375 C 304.117188 110.328125 308.898438 118.5 310.273438 118.5 C 311.082031 118.5 311.617188 117.949219 311.617188 117.117188 C 311.617188 116.355469 312.292969 115.121094 313.117188 114.375 C 313.941406 113.628906 314.617188 112.488281 314.617188 111.839844 C 314.617188 109.785156 319.964844 99.898438 321.253906 99.570312 C 323.222656 99.0625 326.957031 100.953125 328.058594 103.011719 C 329.039062 104.847656 328.75 107.359375 327.578125 107.167969 C 324.550781 106.671875 323.539062 107.445312 321.328125 111.9375 C 318.171875 118.363281 315.984375 122.347656 314.4375 124.5 C 313.320312 126.050781 313.199219 127.40625 313.589844 133.84375 C 313.878906 138.625 314.46875 142.046875 315.199219 143.21875 C 317.335938 146.625 326.125 155.25 327.460938 155.25 C 329.253906 155.25 329.945312 156.578125 328.839844 157.90625 C 327.804688 159.15625 322.71875 159.375 320.636719 158.257812 C 319.875 157.851562 318.476562 156.25 317.527344 154.695312 C 315.53125 151.4375 313.945312 149.671875 313.453125 150.164062 C 313.261719 150.355469 313.785156 151.289062 314.613281 152.246094 C 316.550781 154.476562 316.507812 155.371094 314.382812 157.371094 C 312.136719 159.480469 307.859375 159.558594 306.015625 157.527344 C 304.707031 156.078125 304.714844 154.371094 306.039062 151.125 C 306.582031 149.789062 306.511719 149.738281 305.382812 150.65625 C 304.6875 151.21875 304.117188 151.96875 304.117188 152.316406 C 304.117188 153.449219 297.054688 159.75 295.785156 159.75 C 295.105469 159.75 294.160156 159.277344 293.683594 158.703125 Z M 349.578125 158.59375 C 348.058594 157.480469 348.058594 156.523438 349.582031 153.578125 C 350.40625 151.980469 350.898438 148.574219 351.113281 142.929688 C 351.292969 138.363281 351.8125 132.09375 352.277344 129 C 352.738281 125.90625 353.144531 121.351562 353.179688 118.875 L 353.242188 114.375 L 347.429688 108.722656 C 341.460938 102.921875 340.484375 100.960938 343.136719 100.117188 C 344.285156 99.753906 345.675781 100.566406 348.824219 103.441406 C 353.394531 107.621094 355.285156 108.40625 353.015625 105.1875 C 350.636719 101.804688 350.417969 100.164062 352.140625 98.601562 C 354.460938 96.503906 358.777344 96.871094 360.910156 99.347656 C 363.046875 101.835938 363.039062 102.132812 360.742188 104.863281 C 356.371094 110.058594 359.597656 109.03125 365.964844 103.195312 C 369.238281 100.199219 370.21875 99.941406 371.675781 101.695312 C 373.179688 103.507812 371.332031 106.167969 365.992188 109.898438 C 363.519531 111.625 361.050781 113.84375 360.507812 114.832031 C 359.757812 116.199219 359.601562 119.949219 359.859375 130.601562 C 360.046875 138.285156 359.929688 146.039062 359.601562 147.828125 C 359.136719 150.382812 359.3125 151.679688 360.414062 153.84375 C 362.195312 157.332031 361.507812 158.011719 355.320312 158.859375 C 352.136719 159.292969 350.425781 159.214844 349.578125 158.59375 Z M 397.679688 158.191406 C 395.484375 156.910156 396.167969 154.941406 400.867188 149.054688 C 403.34375 145.957031 405.367188 143.015625 405.367188 142.523438 C 405.367188 141.386719 400.246094 133.4375 398.695312 132.167969 C 397.054688 130.824219 385.789062 132.1875 384.035156 133.941406 C 383.128906 134.847656 383.179688 135.234375 384.402344 136.6875 C 393.125 147.035156 393.304688 148.960938 385.660156 150.394531 C 382.527344 150.980469 380.617188 149.953125 380.617188 147.671875 C 380.617188 146.8125 381.335938 146.097656 382.492188 145.808594 C 384.722656 145.25 384.914062 143.953125 382.953125 142.726562 C 380.996094 141.503906 377.121094 135.609375 376.539062 132.96875 C 375.738281 129.320312 377.738281 128.261719 387.109375 127.367188 C 396.984375 126.421875 397.96875 125.785156 397.863281 120.414062 C 397.820312 118.332031 398.011719 114.90625 398.285156 112.808594 C 398.734375 109.382812 398.605469 108.84375 397.015625 107.554688 C 393.515625 104.714844 393.15625 103.835938 394.453125 101.324219 C 395.894531 98.542969 397.707031 97.5 401.109375 97.5 C 405.238281 97.5 407.515625 102.117188 405.015625 105.417969 C 403.71875 107.136719 403.550781 109.214844 404.652344 109.894531 C 405.652344 110.515625 408.332031 108.769531 414.074219 103.753906 L 418.652344 99.753906 L 418.652344 95.574219 C 418.652344 89.402344 420.351562 87.441406 425.953125 87.148438 C 431.261719 86.867188 433.867188 88.269531 433.867188 91.40625 C 433.867188 94.035156 430.808594 97.496094 428.464844 97.511719 C 426.03125 97.527344 425.199219 98.234375 423.871094 101.425781 C 423.078125 103.324219 421.539062 104.953125 419.097656 106.472656 C 414.597656 109.273438 408 113.871094 405.496094 115.953125 C 403.875 117.300781 403.582031 118.1875 403.515625 121.953125 C 403.457031 125.492188 403.878906 127.195312 405.628906 130.484375 C 408.546875 135.964844 411.132812 140.015625 412.085938 140.605469 C 414.183594 141.902344 411.339844 147.640625 406.636719 151.609375 C 404.710938 153.230469 404.425781 153.816406 405.179688 154.589844 C 406.484375 155.925781 406.351562 158 404.933594 158.542969 C 403.121094 159.238281 399.148438 159.046875 397.679688 158.191406 Z M 447.929688 157.957031 C 446.070312 156.542969 446.304688 153.429688 448.5625 149.570312 C 450.445312 146.363281 450.457031 146.25 448.980469 146.25 C 448.054688 146.25 446.179688 147.78125 444.222656 150.132812 C 438.367188 157.171875 437.109375 158.25 434.769531 158.25 C 433.550781 158.25 432.105469 157.714844 431.5625 157.058594 C 430.707031 156.027344 431.367188 155.101562 436.535156 150.101562 C 439.8125 146.929688 444.054688 143.089844 445.960938 141.570312 L 449.433594 138.800781 L 449.773438 131.839844 C 450.164062 123.929688 450.050781 123.566406 444.546875 115.125 C 439.433594 107.28125 439.328125 107.171875 437.394531 107.625 C 436.488281 107.839844 435.238281 107.683594 434.617188 107.277344 C 433.636719 106.628906 433.683594 106.1875 434.992188 103.769531 C 437.496094 99.148438 438.804688 98.882812 441.867188 102.375 C 443.3125 104.023438 446.191406 107.90625 448.265625 111 C 450.339844 114.09375 452.566406 116.625 453.214844 116.625 C 453.894531 116.625 456.382812 113.449219 459.09375 109.125 C 466.097656 97.945312 465.957031 98.113281 467.652344 99.015625 C 468.449219 99.445312 469.765625 101.160156 470.570312 102.824219 C 472.035156 105.863281 471.949219 107.953125 470.351562 108.054688 C 469.039062 108.140625 465.847656 108.761719 465.730469 108.953125 C 464.3125 111.292969 458.652344 119.335938 457.527344 120.621094 C 456.136719 122.207031 455.984375 123.445312 455.882812 133.878906 C 455.824219 140.210938 455.558594 145.742188 455.292969 146.171875 C 455.027344 146.601562 455.449219 148.398438 456.226562 150.164062 C 458.671875 155.691406 458.679688 155.84375 456.609375 157.472656 C 454.382812 159.222656 449.925781 159.472656 447.929688 157.957031 Z M 540.664062 157.925781 C 537.398438 156.507812 536.949219 154.058594 539.324219 150.632812 C 541 148.214844 541.214844 147.199219 541.070312 142.375 C 540.980469 139.351562 541.171875 133.449219 541.496094 129.261719 L 542.082031 121.648438 L 539.058594 118.011719 C 537.398438 116.011719 535.5 113.308594 534.84375 112.007812 C 533.042969 108.425781 531.519531 107.25 528.691406 107.25 C 526.359375 107.25 526.117188 107.046875 526.117188 105.101562 C 526.117188 102.53125 528.691406 99 530.570312 99 C 531.765625 99 536.492188 104.605469 541.792969 112.3125 C 542.714844 113.652344 543.90625 114.75 544.441406 114.75 C 544.976562 114.75 547.171875 111.890625 549.3125 108.390625 C 553.097656 102.222656 556.285156 99 558.605469 99 C 559.960938 99 563.617188 103.164062 563.617188 104.707031 C 563.617188 105.308594 562.496094 106.460938 561.125 107.273438 C 558.078125 109.070312 550.863281 117.15625 549.488281 120.316406 C 548.332031 122.972656 548.058594 124.871094 547.644531 133.015625 C 547.316406 139.460938 547.832031 140.484375 552.671875 143.019531 C 556.753906 145.15625 563.398438 151.734375 564.085938 154.320312 C 564.933594 157.511719 561.707031 159.289062 558.34375 157.484375 C 557.558594 157.066406 556.019531 155.195312 554.929688 153.332031 C 553.695312 151.230469 551.855469 149.386719 550.085938 148.484375 C 546.726562 146.769531 545.902344 147.695312 547.886719 150.957031 C 549.421875 153.488281 548.992188 156.402344 546.859375 157.898438 C 544.941406 159.242188 543.695312 159.246094 540.664062 157.925781 Z M 71.804688 76.476562 C 69.453125 75.53125 69.695312 73.421875 72.59375 69.621094 C 73.953125 67.835938 75.851562 64.972656 76.8125 63.261719 L 78.558594 60.152344 L 76.539062 57.5 C 73.074219 52.960938 69.554688 50.765625 65.148438 50.398438 C 57.75 49.785156 56.617188 50.355469 53.160156 56.445312 C 51.460938 59.429688 49.851562 62.582031 49.582031 63.441406 C 48.828125 65.859375 45.964844 67.113281 43.773438 65.984375 C 41.722656 64.925781 37.867188 61.472656 37.867188 60.691406 C 37.867188 59.53125 40.328125 59.3125 41.796875 60.339844 C 44.546875 62.265625 46.277344 60.148438 49.902344 50.410156 C 51.558594 45.976562 53.660156 45 61.578125 45 C 69.621094 45 70.296875 44.515625 71.203125 38.105469 C 71.789062 33.933594 71.277344 33.453125 62.992188 30.371094 C 60.105469 29.296875 57.355469 27.914062 56.886719 27.296875 C 55.503906 25.5 59.269531 14.464844 62.058594 12.152344 C 62.851562 11.496094 63.480469 11.5625 64.730469 12.4375 C 66.851562 13.921875 66.796875 15.703125 64.492188 20.25 C 63.460938 22.285156 62.617188 24.289062 62.617188 24.707031 C 62.617188 25.738281 66.144531 27.441406 69.554688 28.058594 C 72.597656 28.609375 73.230469 27.753906 71.242188 25.769531 C 69.667969 24.195312 69.84375 21.554688 71.671875 19.226562 C 73.558594 16.828125 76.273438 16.664062 79.679688 18.742188 C 83.039062 20.789062 83.121094 24.523438 79.867188 27.261719 C 78.628906 28.300781 77.617188 29.328125 77.617188 29.542969 C 77.617188 29.753906 79.21875 30.636719 81.171875 31.5 C 83.125 32.367188 85.488281 33.789062 86.421875 34.667969 C 89.457031 37.519531 88.683594 39.113281 82.117188 43.546875 C 78.816406 45.773438 76.117188 47.804688 76.117188 48.058594 C 76.117188 48.308594 77.78125 50.414062 79.8125 52.734375 C 81.839844 55.058594 83.714844 57.621094 83.972656 58.433594 C 84.417969 59.835938 82.964844 63.148438 79.039062 69.699219 L 77.496094 72.277344 L 79.242188 73.648438 C 80.960938 74.992188 80.964844 75.039062 79.539062 76.132812 C 77.929688 77.367188 74.410156 77.523438 71.804688 76.476562 Z M 79.449219 39.046875 C 80.84375 37.507812 80.484375 36 78.726562 36 C 77.464844 36 75.859375 38.722656 76.503906 39.765625 C 77.179688 40.859375 77.988281 40.664062 79.449219 39.046875 Z M 5.464844 75.304688 C 1.839844 74.195312 -0.5625 71.847656 0.113281 70.078125 C 0.324219 69.527344 1.890625 68.976562 3.601562 68.851562 C 6.527344 68.636719 6.769531 68.433594 7.9375 65.25 C 10.210938 59.03125 12.46875 52.140625 12.851562 50.25 C 13.058594 49.21875 13.515625 47.699219 13.867188 46.875 C 14.851562 44.542969 15.40625 35.222656 14.644531 33.796875 C 14.265625 33.09375 12.503906 31.535156 10.726562 30.332031 C 8.949219 29.132812 6.742188 27.46875 5.824219 26.636719 C 4.90625 25.804688 3.453125 24.515625 2.59375 23.769531 C 1.488281 22.808594 1.097656 21.710938 1.261719 20.019531 C 1.46875 17.871094 1.722656 17.640625 3.71875 17.789062 C 5.34375 17.90625 7.132812 19.175781 10.332031 22.476562 C 12.742188 24.964844 15.089844 27 15.546875 27 C 16.003906 27 15.667969 26.242188 14.800781 25.3125 C 12.421875 22.765625 12.34375 19.628906 14.617188 17.925781 C 17.765625 15.5625 20.917969 15.328125 22.769531 17.316406 C 24.898438 19.601562 24.785156 21.890625 22.398438 24.722656 C 19.597656 28.054688 20.488281 28.140625 24.121094 24.890625 C 32.25 17.621094 33.824219 16.457031 35.242188 16.660156 C 38.398438 17.113281 37.367188 19.769531 32.527344 23.648438 C 29.96875 25.699219 26.328125 28.789062 24.433594 30.519531 L 20.992188 33.664062 L 21.179688 40.921875 C 21.371094 48.480469 22.335938 52.464844 26.527344 63 C 28.105469 66.96875 29.164062 68.65625 30.128906 68.734375 C 30.878906 68.792969 32.082031 68.875 32.804688 68.921875 C 35.230469 69.066406 34.28125 71.878906 31.132812 73.867188 C 26 77.105469 25.1875 76.527344 22.570312 67.777344 C 21.597656 64.53125 20.210938 60.523438 19.484375 58.875 L 18.164062 55.875 L 16.902344 58.875 C 16.210938 60.523438 15.023438 64.207031 14.265625 67.054688 C 13.4375 70.171875 12.113281 73.058594 10.941406 74.308594 C 9.011719 76.363281 8.957031 76.371094 5.464844 75.304688 Z M 124.304688 75.3125 C 121.425781 74.050781 121.398438 73.898438 123.484375 70.5 C 126.558594 65.484375 128.617188 61.269531 128.617188 59.992188 C 128.617188 57.40625 122.71875 51.902344 116.996094 49.152344 C 113.9375 47.679688 110.425781 46.273438 109.195312 46.027344 L 106.953125 45.578125 L 108.308594 49.976562 C 109.054688 52.394531 110.269531 55.625 111.011719 57.152344 C 112.132812 59.453125 112.195312 60.128906 111.386719 61.101562 C 110.039062 62.726562 105.730469 64.679688 104.164062 64.375 C 102.167969 63.988281 102.191406 62.832031 104.246094 60.445312 C 106.304688 58.050781 106.433594 57.640625 105.457031 56.585938 C 105.089844 56.195312 103.59375 52.859375 102.128906 49.171875 C 98.300781 39.53125 99.855469 37.496094 108.40625 40.945312 C 114.515625 43.40625 117.753906 44.203125 119.636719 43.710938 C 120.871094 43.390625 121.117188 42.683594 121.105469 39.476562 C 121.101562 37.359375 120.828125 35.203125 120.5 34.691406 C 120.175781 34.175781 117.417969 33.125 114.375 32.351562 C 110.785156 31.4375 108.371094 30.367188 107.503906 29.296875 C 106.21875 27.707031 106.234375 27.480469 107.945312 22.925781 C 110.214844 16.894531 111.710938 14.023438 113.230469 12.761719 C 114.253906 11.910156 114.636719 11.945312 115.6875 12.996094 C 117.023438 14.335938 116.796875 15.71875 114.007812 23.222656 C 112.863281 26.304688 112.859375 26.640625 113.980469 27.457031 C 115.738281 28.742188 120.433594 29.484375 121.300781 28.617188 C 121.789062 28.128906 121.625 27.28125 120.828125 26.144531 C 118.066406 22.203125 120.269531 17.917969 125.128906 17.78125 C 128.414062 17.6875 129.945312 18.945312 130.566406 22.25 C 130.972656 24.414062 130.722656 25.195312 129.085938 26.902344 C 128.003906 28.03125 127.117188 29.15625 127.117188 29.398438 C 127.117188 29.640625 128.503906 30.390625 130.199219 31.070312 C 134.101562 32.632812 134.800781 32.089844 136.867188 25.875 C 138.683594 20.414062 140.101562 18.796875 141.992188 20.015625 C 143.710938 21.125 143.378906 23.402344 140.1875 32.464844 C 138.347656 37.6875 137.277344 38.046875 128.804688 36.324219 C 127.011719 35.960938 126.355469 36.101562 126.324219 36.851562 C 126.300781 37.414062 126.109375 39.949219 125.898438 42.484375 C 125.578125 46.316406 125.75 47.328125 126.914062 48.484375 C 130.578125 52.125 134.617188 57.746094 134.617188 59.203125 C 134.617188 60.09375 133.300781 63.25 131.6875 66.222656 C 129.40625 70.425781 128.933594 71.894531 129.558594 72.835938 C 130.613281 74.433594 129.757812 76.515625 128.078125 76.4375 C 127.34375 76.40625 125.644531 75.898438 124.304688 75.3125 Z M 173.828125 74.855469 L 171.414062 74.21875 L 171.726562 66.675781 C 171.898438 62.527344 172.417969 57.992188 172.875 56.601562 C 173.480469 54.765625 173.484375 53.652344 172.886719 52.535156 C 172.15625 51.167969 171.394531 51.007812 165.90625 51.085938 C 162.515625 51.136719 157.550781 51.394531 154.867188 51.667969 C 152.1875 51.9375 149.269531 51.859375 148.386719 51.496094 C 145.265625 50.207031 143.757812 43.5 146.589844 43.5 C 147.402344 43.5 148.410156 44.140625 148.828125 44.925781 C 149.390625 45.976562 150.636719 46.4375 153.542969 46.667969 C 155.714844 46.839844 158.085938 46.691406 158.8125 46.335938 C 159.535156 45.980469 162.984375 45.667969 166.472656 45.636719 C 173.65625 45.578125 173.199219 46.019531 174.023438 38.34375 C 174.59375 33.027344 174.371094 32.6875 167.242188 27.953125 C 162.828125 25.019531 160.117188 22.378906 160.117188 21.007812 C 160.117188 19.28125 161.59375 18.039062 163.023438 18.570312 C 164.75 19.210938 171.480469 24.355469 173.109375 26.28125 C 175.097656 28.628906 175.453125 27.582031 173.660156 24.648438 C 171.726562 21.476562 171.726562 20.203125 173.648438 18.140625 C 175.566406 16.078125 178.09375 16.046875 180.640625 18.054688 C 182.933594 19.855469 183.292969 23.214844 181.402344 25.105469 C 180.734375 25.773438 180.363281 26.496094 180.574219 26.707031 C 180.785156 26.917969 181.921875 26.082031 183.101562 24.851562 C 187.425781 20.332031 191.644531 17.308594 192.960938 17.792969 C 196.46875 19.085938 195.222656 21.84375 188.589844 27.457031 C 185.960938 29.679688 183.582031 31.5 183.300781 31.5 C 182.238281 31.5 180.277344 39.367188 180.421875 43.042969 C 180.507812 45.148438 180.21875 48.226562 179.78125 49.875 C 179.34375 51.523438 178.765625 55.40625 178.496094 58.5 C 178.226562 61.59375 177.867188 65.386719 177.695312 66.929688 C 177.40625 69.539062 177.566406 69.8125 180 70.828125 C 183.890625 72.457031 183.398438 73.902344 178.59375 74.96875 C 177.300781 75.253906 175.15625 75.203125 173.828125 74.855469 Z M 267.554688 74.289062 C 265.554688 72.394531 265.582031 72.640625 266.992188 69.257812 C 267.613281 67.777344 268.117188 64.328125 268.117188 61.589844 C 268.117188 58.855469 268.429688 55.53125 268.808594 54.207031 C 269.480469 51.863281 269.425781 51.78125 266.859375 51.300781 C 265.410156 51.027344 259.769531 51.042969 254.332031 51.328125 C 245.082031 51.820312 244.359375 51.757812 243.109375 50.378906 C 241.144531 48.207031 241.257812 44.308594 243.332031 42.628906 C 245.589844 40.800781 246.515625 40.886719 248.613281 43.121094 C 250.355469 44.972656 250.472656 44.988281 259.433594 44.539062 C 264.417969 44.285156 268.714844 43.730469 268.980469 43.304688 C 269.25 42.875 269.410156 38.78125 269.335938 34.199219 C 269.234375 28.101562 268.867188 25.261719 267.964844 23.582031 C 266.441406 20.753906 266.882812 19.984375 271.140625 18.054688 C 275.453125 16.097656 276.503906 16.121094 278.488281 18.234375 C 280.519531 20.398438 280.515625 21.042969 278.476562 24.96875 C 277.050781 27.71875 276.820312 29.472656 276.683594 38.625 C 276.492188 51.578125 275.644531 65.0625 274.894531 67.097656 C 274.199219 68.984375 274.675781 70.5 275.964844 70.5 C 276.496094 70.5 277.367188 71.023438 277.898438 71.664062 C 279.363281 73.429688 277.375 74.953125 272.949219 75.460938 C 269.839844 75.816406 268.972656 75.628906 267.554688 74.289062 Z M 205.683594 72.914062 C 200.796875 70.113281 201.101562 67.695312 206.285156 68.140625 C 208.367188 68.320312 208.738281 68.019531 209.972656 65.109375 C 210.730469 63.328125 212.472656 59.429688 213.84375 56.441406 C 215.214844 53.453125 216.550781 50.15625 216.8125 49.121094 C 217.070312 48.085938 217.535156 47.082031 217.835938 46.894531 C 218.140625 46.707031 218.300781 43.980469 218.191406 40.839844 L 217.996094 35.125 L 211.957031 29.113281 C 205.769531 22.949219 204.359375 20.707031 205.777344 19.289062 C 206.941406 18.125 209.855469 19.867188 214.234375 24.335938 C 218.1875 28.371094 218.46875 28.433594 216.691406 24.871094 C 214.976562 21.433594 215.554688 19.359375 218.699219 17.675781 C 221.046875 16.417969 221.703125 16.355469 223.710938 17.183594 C 225.554688 17.949219 227.617188 20.949219 227.617188 22.871094 C 227.617188 22.953125 226.949219 23.789062 226.132812 24.730469 C 225.316406 25.671875 224.839844 26.75 225.070312 27.121094 C 225.300781 27.496094 226.15625 26.953125 226.96875 25.914062 C 227.785156 24.878906 229.445312 23.039062 230.660156 21.824219 C 232.945312 19.539062 233.261719 17.542969 232.890625 7.847656 C 232.71875 3.378906 234.628906 1.914062 239.914062 2.457031 C 244.90625 2.972656 247.867188 4.753906 247.867188 7.246094 C 247.867188 9.441406 244.765625 12.75 242.707031 12.75 C 240.359375 12.75 238.957031 14.734375 239.003906 17.996094 C 239.050781 21.320312 238.554688 22 230.476562 29.785156 C 227.316406 32.832031 225.277344 35.457031 224.964844 36.886719 C 224.25 40.140625 226.085938 50.785156 228.046875 54.761719 C 228.964844 56.625 230.121094 59.664062 230.617188 61.511719 C 231.84375 66.109375 232.605469 66.867188 235.457031 66.332031 C 240.625 65.363281 240.78125 70.332031 235.667969 73.082031 C 233.402344 74.304688 232.71875 74.371094 230.765625 73.5625 C 229.355469 72.976562 228.160156 71.722656 227.605469 70.25 C 227.117188 68.941406 225.949219 66.019531 225.015625 63.75 C 224.082031 61.480469 223.113281 59.035156 222.863281 58.3125 C 221.699219 54.90625 219.128906 57.9375 216.683594 65.605469 C 213.523438 75.535156 212.007812 76.542969 205.683594 72.914062 Z M 303.773438 73.988281 C 302.023438 72.710938 302.777344 71.421875 306.085938 70.039062 C 307.476562 69.457031 308.652344 68.5625 308.699219 68.050781 C 308.742188 67.542969 308.835938 64.59375 308.90625 61.5 C 308.980469 58.40625 309.332031 50.570312 309.691406 44.089844 C 310.417969 31.054688 310.464844 31.234375 305.628906 28.070312 C 304.179688 27.121094 301.328125 24.820312 299.292969 22.960938 C 295.855469 19.820312 295.652344 19.441406 296.464844 17.664062 C 297.804688 14.722656 300.195312 15.261719 304.691406 19.515625 C 309.265625 23.839844 310.914062 24.339844 308.679688 20.726562 L 307.121094 18.199219 L 308.78125 16.039062 C 311.117188 12.996094 311.699219 12.691406 314.242188 13.210938 C 318.894531 14.15625 320.476562 17.875 317.882812 21.769531 C 317.203125 22.789062 318.816406 21.515625 321.464844 18.9375 C 326.746094 13.800781 328.570312 13.175781 329.339844 16.234375 C 329.777344 17.988281 329.128906 18.914062 323.75 24.1875 L 317.660156 30.152344 L 317.296875 36.488281 C 316.976562 42.003906 317.097656 42.871094 318.210938 43.199219 C 318.917969 43.40625 320.464844 44.074219 321.65625 44.683594 C 322.84375 45.292969 325.878906 46 328.40625 46.25 C 330.929688 46.5 333.960938 47.246094 335.144531 47.914062 C 337.160156 49.046875 337.351562 49.039062 338.144531 47.746094 C 340.390625 44.097656 340.523438 44.011719 342.324219 44.976562 C 343.828125 45.78125 343.976562 46.269531 343.542969 48.988281 C 342.554688 55.171875 339.757812 55.996094 330.144531 52.945312 C 327.019531 51.953125 322.863281 51.027344 320.910156 50.882812 C 317.527344 50.636719 317.328125 50.730469 316.691406 52.875 C 316.320312 54.113281 316.042969 59.070312 316.070312 63.894531 C 316.117188 72.136719 316.019531 72.734375 314.453125 73.832031 C 312.382812 75.28125 305.675781 75.378906 303.773438 73.988281 Z M 351.101562 72.730469 C 348.253906 71.875 346.117188 69.863281 346.117188 68.035156 C 346.117188 66.765625 346.488281 66.613281 348.707031 66.972656 C 351.15625 67.371094 351.402344 67.207031 353.207031 63.976562 C 354.257812 62.097656 355.117188 60.203125 355.117188 59.765625 C 355.117188 59.332031 355.757812 57.601562 356.542969 55.925781 C 357.328125 54.246094 358.355469 51.636719 358.832031 50.121094 C 359.304688 48.609375 360.183594 46.964844 360.78125 46.46875 C 361.558594 45.824219 361.867188 43.917969 361.867188 39.769531 C 361.867188 33.34375 361.96875 33.539062 353.804688 24.015625 C 349.523438 19.019531 348.769531 16.5 351.5625 16.5 C 352.71875 16.5 354.308594 17.8125 356.554688 20.628906 C 360.722656 25.851562 362.441406 27.308594 360.445312 23.925781 C 358.921875 21.34375 358.921875 21.308594 360.367188 18.933594 C 361.167969 17.617188 362.683594 16.324219 363.734375 16.058594 C 366.585938 15.34375 369.894531 17.023438 370.808594 19.65625 C 371.472656 21.558594 371.34375 22.277344 369.996094 24.171875 L 368.390625 26.421875 L 369.972656 25.578125 C 370.84375 25.113281 371.820312 24.28125 372.148438 23.730469 C 373.214844 21.9375 380.726562 17.132812 381.8125 17.546875 C 384.140625 18.441406 382.707031 20.957031 377.054688 25.898438 C 367.527344 34.222656 367.835938 33.738281 368.222656 39.96875 C 368.460938 43.816406 369.144531 46.5625 370.585938 49.5 C 373.558594 55.546875 373.632812 55.722656 374.175781 58.148438 C 375.007812 61.867188 377.214844 64.125 380.015625 64.125 C 382.125 64.125 382.527344 64.414062 382.71875 66.074219 C 383.019531 68.667969 378.351562 72.941406 375.585938 72.605469 C 374.015625 72.414062 373.398438 71.558594 371.90625 67.5 C 370.917969 64.820312 369.4375 61.398438 368.613281 59.898438 C 367.792969 58.398438 367.117188 56.308594 367.117188 55.253906 C 367.117188 54.199219 366.804688 53.144531 366.425781 52.910156 C 365.492188 52.335938 363.050781 55.933594 361.863281 59.625 C 361.335938 61.273438 360.679688 62.792969 360.410156 63 C 360.140625 63.207031 359.488281 64.851562 358.960938 66.652344 C 358.058594 69.738281 355.160156 73.578125 353.839844 73.433594 C 353.511719 73.398438 352.277344 73.082031 351.101562 72.730469 Z M 411.570312 72.1875 C 410.199219 70.960938 410.148438 70.316406 410.765625 62.25 C 411.128906 57.507812 411.5 52.445312 411.585938 51 L 411.742188 48.375 L 404.617188 48.460938 C 400.699219 48.511719 394.851562 48.679688 391.621094 48.835938 C 386.140625 49.105469 385.644531 49.003906 384.269531 47.308594 C 383.460938 46.3125 382.898438 44.792969 383.019531 43.933594 C 383.203125 42.644531 383.699219 42.410156 385.867188 42.582031 C 387.3125 42.695312 391.023438 42.710938 394.117188 42.613281 C 397.210938 42.511719 402.527344 42.488281 405.929688 42.558594 C 409.332031 42.625 412.152344 42.445312 412.191406 42.152344 C 412.230469 41.863281 412.316406 37.429688 412.378906 32.300781 C 412.476562 24.441406 412.285156 22.714844 411.179688 21.308594 C 409.371094 19.007812 409.527344 17.855469 411.972656 15.515625 C 414.542969 13.050781 417.402344 12.925781 420.398438 15.140625 C 423.136719 17.164062 423.28125 19.707031 420.792969 22.011719 C 419.023438 23.652344 418.964844 24.042969 418.914062 34.792969 C 418.882812 40.890625 418.496094 49.136719 418.054688 53.117188 C 416.644531 65.738281 416.707031 67.300781 418.660156 68.191406 C 421.007812 69.261719 420.800781 70.988281 418.15625 72.355469 C 415.265625 73.851562 413.371094 73.800781 411.570312 72.1875 Z M 438.535156 72.59375 C 436.441406 71.5625 436.710938 70.4375 439.359375 69.148438 C 441.097656 68.300781 441.375 67.691406 441.429688 64.648438 C 441.464844 62.710938 441.609375 59.101562 441.75 56.625 C 441.890625 54.148438 442.210938 47.136719 442.464844 41.042969 L 442.921875 29.960938 L 435.582031 22.90625 C 429.210938 16.777344 428.355469 15.667969 429.097656 14.484375 C 429.566406 13.738281 430.46875 13.167969 431.105469 13.21875 C 432.371094 13.324219 440.929688 19.726562 443.015625 22.125 C 444.628906 23.984375 444.722656 23.347656 443.246094 20.523438 C 441.722656 17.601562 441.808594 17.011719 444.09375 14.726562 C 446.566406 12.253906 449.144531 12.207031 451.527344 14.589844 C 453.878906 16.945312 453.855469 18.808594 451.425781 21.691406 C 448.621094 25.027344 449.917969 24.527344 453.984375 20.703125 C 455.914062 18.886719 458.980469 16.167969 460.800781 14.660156 C 463.730469 12.230469 464.234375 12.046875 465.222656 13.035156 C 467.066406 14.875 465.179688 17.90625 458.847656 23.273438 C 450.085938 30.703125 449.617188 31.226562 449.617188 33.621094 C 449.617188 34.828125 449.421875 36.785156 449.1875 37.976562 C 448.707031 40.375 448.089844 40.089844 460.492188 43.164062 C 467.136719 44.8125 469.308594 45.910156 470.984375 48.464844 C 472.003906 50.027344 472.125 50.789062 471.492188 51.691406 C 471.039062 52.34375 470.03125 54.226562 469.261719 55.875 C 468.492188 57.523438 466.96875 59.71875 465.875 60.75 C 463.578125 62.921875 463.402344 63.929688 465.070312 65.3125 C 466.160156 66.21875 466.113281 66.4375 464.613281 67.65625 C 461.632812 70.070312 454.867188 68.914062 454.867188 65.996094 C 454.867188 65.148438 455.367188 64.261719 455.972656 64.027344 C 456.582031 63.796875 458.621094 61.527344 460.507812 58.992188 C 463.042969 55.578125 463.878906 53.816406 463.714844 52.222656 C 463.507812 50.210938 463.121094 49.976562 457.867188 48.640625 C 448.59375 46.28125 448.398438 46.488281 448.175781 58.875 C 448.0625 64.996094 447.246094 71.65625 446.527344 72.320312 C 445.660156 73.117188 439.992188 73.308594 438.535156 72.59375 Z M 478.679688 71.941406 C 476.480469 70.660156 477.0625 68.371094 479.765625 67.671875 C 481.84375 67.132812 482.296875 66.554688 483.164062 63.335938 C 484.554688 58.1875 486.402344 42.488281 485.671875 42.015625 C 485.34375 41.800781 485.378906 39.132812 485.746094 36.085938 C 486.324219 31.324219 486.238281 30.351562 485.152344 29.148438 C 484.457031 28.378906 483.402344 27.75 482.8125 27.75 C 481.464844 27.75 472.148438 18.898438 471.367188 16.875 C 470.726562 15.203125 471.734375 13.5 473.367188 13.5 C 473.949219 13.5 476.945312 16.03125 480.015625 19.125 C 484.96875 24.109375 487.117188 25.683594 487.117188 24.324219 C 487.117188 24.089844 486.246094 22.757812 485.179688 21.359375 C 482.265625 17.535156 483.660156 14.703125 489.0625 13.484375 C 492.597656 12.6875 493.816406 13.207031 494.996094 16.011719 C 495.808594 17.9375 495.777344 18.574219 494.8125 20.046875 C 492.628906 23.378906 494.378906 22.464844 499.472656 17.617188 C 502.285156 14.941406 505.019531 12.75 505.550781 12.75 C 507.109375 12.75 507.601562 15.65625 506.367188 17.539062 C 505.003906 19.621094 496.601562 27.109375 494.570312 28.054688 C 492.675781 28.933594 491.6875 32.921875 491.855469 39 L 491.992188 43.875 L 496.867188 44.363281 C 499.550781 44.632812 503.867188 45.59375 506.460938 46.496094 C 511.480469 48.242188 512.804688 47.960938 513.765625 44.933594 C 514.425781 42.851562 516.992188 43.113281 517.546875 45.320312 C 518.089844 47.480469 517.453125 49.808594 515.890625 51.371094 C 514.363281 52.898438 510.101562 52.753906 505.117188 51 C 502.789062 50.179688 498.957031 49.539062 496.320312 49.523438 C 491.066406 49.496094 491.375 49.097656 490.503906 57 C 489.753906 63.792969 487.136719 71 485.082031 71.9375 C 482.871094 72.945312 480.40625 72.945312 478.679688 71.941406 Z M 519.605469 71.5 C 514.964844 69.113281 514.3125 66 518.453125 66 C 519.621094 66 521.117188 65.578125 521.769531 65.0625 C 522.425781 64.546875 524.90625 59.398438 527.289062 53.625 C 532.558594 40.847656 533.359375 35.039062 530.539062 30.023438 C 529.605469 28.359375 528.578125 27 528.257812 27 C 526.128906 27 517.367188 16.417969 518.277344 14.945312 C 519.261719 13.351562 521.933594 14.476562 525.511719 18 C 527.609375 20.0625 529.679688 21.75 530.121094 21.75 C 530.628906 21.75 530.589844 21.421875 530.019531 20.851562 C 528.675781 19.507812 528.910156 18.363281 531.058594 15.808594 C 532.339844 14.285156 533.6875 13.5 535.019531 13.5 C 536.914062 13.5 540.167969 15.195312 541.214844 16.726562 C 541.871094 17.6875 541.125 20.371094 539.769531 21.9375 C 537.746094 24.277344 540.074219 23.328125 543.980469 20.21875 C 548.4375 16.671875 548.8125 15.757812 548.746094 8.691406 C 548.671875 1.195312 549.59375 0 555.433594 0 C 561.667969 0 562.867188 0.773438 562.867188 4.78125 C 562.867188 7.511719 562.574219 8.144531 560.957031 8.878906 C 559.90625 9.359375 558.609375 9.75 558.074219 9.75 C 556.441406 9.75 554.746094 12.222656 553.953125 15.761719 C 553.40625 18.203125 552.414062 19.796875 550.347656 21.578125 C 548.777344 22.925781 545.550781 25.742188 543.179688 27.839844 L 538.867188 31.65625 L 538.867188 38.984375 C 538.867188 44.34375 539.148438 46.550781 539.914062 47.183594 C 540.492188 47.664062 541.171875 49.183594 541.433594 50.566406 C 541.691406 51.945312 542.902344 54.550781 544.121094 56.351562 C 545.34375 58.152344 546.351562 60.46875 546.367188 61.5 C 546.398438 64.058594 547.382812 65.410156 549.078125 65.226562 C 553.941406 64.710938 554.515625 66.867188 550.46875 70.421875 C 547.679688 72.871094 544.171875 73.503906 542.785156 71.8125 C 542.359375 71.296875 541.628906 69.355469 541.15625 67.5 C 540.089844 63.289062 536.710938 55.484375 535.378906 54.152344 C 533.875 52.652344 533.148438 53.527344 531.308594 59.054688 C 529.109375 65.667969 527.109375 70.125 525.9375 71.042969 C 524.1875 72.414062 521.726562 72.589844 519.605469 71.5 Z M 519.605469 71.5 "/>
</g>
</svg>
